<svg xmlns="http://www.w3.org/2000/svg" viewBox="0 0 12288 2048" width="12288" height="2048">
	<defs>
		<linearGradient id="grd1" gradientUnits="userSpaceOnUse"  x1="294.303" y1="1134.823" x2="2043.959" y2="1134.823">
			<stop offset="0" stop-color="#d7df00"  />
			<stop offset="0.56" stop-color="#7ac517"  />
			<stop offset="0.83" stop-color="#30a824"  />
			<stop offset="1" stop-color="#00952d"  />
		</linearGradient>
		<linearGradient id="grd2" gradientUnits="userSpaceOnUse"  x1="0.311" y1="1040.155" x2="302.904" y2="1040.155">
			<stop offset="0" stop-color="#32c0e4"  />
			<stop offset="1" stop-color="#2348aa"  />
		</linearGradient>
		<linearGradient id="grd3" gradientUnits="userSpaceOnUse"  x1="297.825" y1="684.925" x2="608.74" y2="684.925">
			<stop offset="0" stop-color="#32c0e4"  />
			<stop offset="1" stop-color="#2348aa"  />
		</linearGradient>
		<linearGradient id="grd4" gradientUnits="userSpaceOnUse"  x1="582.313" y1="566.607" x2="1228.226" y2="566.607">
			<stop offset="0" stop-color="#32c0e4"  />
			<stop offset="1" stop-color="#2348aa"  />
		</linearGradient>
		<linearGradient id="grd5" gradientUnits="userSpaceOnUse"  x1="903.722" y1="567.29" x2="1581.189" y2="567.29">
			<stop offset="0" stop-color="#32c0e4"  />
			<stop offset="1" stop-color="#2348aa"  />
		</linearGradient>
	</defs>
	<style>
		tspan { white-space:pre }
		.font1 { fill: #30a824 }
		.font2 { fill: #2348aa } 
		.shp0 { fill: url(#grd1) } 
		.shp1 { fill: url(#grd2) } 
		.shp2 { fill: url(#grd3) } 
		.shp3 { fill: url(#grd4) } 
		.shp4 { fill: url(#grd5) } 
	</style>
	<g id="theFont">
		<path id="Layer" class="font1" d="M2203,89.19h379.64l304.45,1098.9l320.95,-1098.9h379.64v1406.85h-247.59v-1054.61l-319.12,1054.61h-267.76l-302.61,-1054.61v1054.61h-247.59zM3833.43,1496.04v-1027.19h245.76v1027.19zM4079.19,363.39h-245.76v-274.2h245.76zM5067.72,468.85v219.36h-293.44c-99.04,0 -167.35,25.31 -205.41,75.93c-36.68,47.98 -55.02,120.75 -55.02,219.36c0,109.68 29.8,189.83 89.87,240.45c24.3,19.51 50.89,33.22 79.78,41.13c28.89,7.91 68.78,11.6 120.13,11.6h264.1v219.36h-335.62c-90.32,0 -161.85,-10.55 -214.58,-31.64c-52.73,-21.09 -99.04,-57.48 -139.38,-109.68c-77.03,-98.61 -115.54,-223.58 -115.54,-375.44c0,-182.97 45.85,-319.02 137.55,-409.19c36.68,-36.38 80.7,-62.75 132.05,-78.04c51.35,-15.29 117.83,-23.2 199.91,-23.2zM5254.79,1496.04v-1027.19h363.13c74.74,0 132.51,5.8 173.31,17.93c40.81,12.13 74.74,32.17 101.79,60.11c27.05,27.95 45.85,63.28 56.85,105.46c11,42.18 16.51,102.82 16.51,181.39v99.13h-236.59v-54.84c0,-73.3 -11,-122.86 -33.01,-149.75c-22.01,-26.89 -64.19,-40.08 -126.55,-40.08h-69.69v807.83zM6998.93,996.16c0,160.3 -45.39,288.44 -135.72,383.88c-82.99,87.01 -196.7,130.77 -341.13,130.77c-149.01,0 -265.93,-49.04 -350.3,-147.65c-78.4,-88.59 -117.38,-217.78 -117.38,-388.1c0,-143.43 37.14,-263.12 111.87,-358.57c82.99,-107.04 203.12,-160.83 359.47,-162.41c165.06,0 286.56,54.84 364.97,164.52c71.98,99.66 108.21,225.69 108.21,377.55zM6305.67,985.61c0,85.95 12.38,151.34 36.68,196.16c40.35,75.93 102.7,113.9 187.07,113.9c145.35,0 218.25,-104.93 218.25,-314.27c0,-205.12 -73.36,-309.53 -220.08,-312.16c-148.1,0 -221.91,105.46 -221.91,316.38zM7635.33,911.79v-251h599.72v835.25h-546.53c-93.99,0 -169.19,-7.91 -224.67,-24.26c-55.48,-16.35 -105.91,-44.82 -151.31,-85.42c-128.38,-113.9 -192.57,-310.05 -192.57,-588.47c0,-181.39 30.72,-332.73 91.7,-453.48c45.39,-88.59 106.83,-153.45 185.23,-194.05c78.4,-40.6 179.73,-61.17 304.45,-61.17h533.7v251h-504.35c-108.66,0 -187.53,27.42 -236.59,82.26c-58.69,64.86 -88.03,180.87 -88.03,348.02c0,85.95 7.79,162.94 22.93,232.01c15.13,69.08 36.22,120.23 63.27,153.97c23.38,31.11 55.48,53.26 96.29,67.49c40.81,14.24 91.24,21.09 151.31,21.09h236.59v-333.26zM8447.79,1496.04v-1027.19h363.13c74.74,0 132.51,5.8 173.31,17.93c40.81,12.13 74.74,32.17 101.79,60.11c27.05,27.95 45.85,63.28 56.85,105.46c11,42.18 16.51,102.82 16.51,181.39v99.13h-236.59v-54.84c0,-73.3 -11,-122.86 -33.01,-149.75c-22.01,-26.89 -64.19,-40.08 -126.55,-40.08h-69.69v807.83zM9922.33,871.71c0,-71.71 -12.38,-120.23 -37.6,-145.54c-25.22,-25.31 -74.74,-37.97 -149.47,-37.97h-414.49v-219.36h414.49c74.74,0 126.09,1.58 154.06,5.27c27.97,3.69 56.85,10.02 86.2,20.04c135.72,59.06 199.91,200.38 192.57,423.95v577.93h-517.19c-93.08,0 -157.27,-3.16 -192.57,-9.49c-35.3,-6.33 -66.48,-19.51 -93.53,-39.02c-71.98,-56.42 -108.21,-141.32 -108.21,-255.22c0,-69.08 14.21,-130.24 43.1,-184.56c28.89,-54.31 66.94,-91.22 114.63,-110.73c41.72,-16.87 110.5,-25.31 207.24,-25.31zM9922.33,1276.68v-185.61h-324.62c-27.97,0 -50.44,8.44 -66.94,25.31c-16.51,16.87 -24.76,40.08 -24.76,69.6c0,32.17 10.09,55.37 30.26,69.6c20.17,14.24 54.56,21.09 103.62,21.09zM10397.34,1496.04v-1027.19h245.76v1027.19zM10643.1,363.39h-245.76v-274.2h245.76zM11130.94,89.19v1406.85h-245.76v-1406.85zM12148.82,468.85v219.36h-434.66c-49.98,0 -82.07,2.64 -95.37,8.44c-27.97,11.07 -42.18,38.49 -42.18,82.26c0,36.38 13.3,64.86 40.35,84.37c14.67,11.07 54.56,16.87 119.21,16.87h144.89c93.08,0 166.44,22.67 220.08,67.49c60.06,50.62 89.87,124.97 89.87,223.58c0,74.35 -18.34,142.9 -55.02,204.59c-27.05,49.04 -59.61,81.73 -98.12,97.02c-38.51,15.29 -103.16,23.2 -193.49,23.2h-508.02v-219.36h438.33c53.64,0 90.32,-0.53 110.04,-2.11c44.02,-5.8 66.02,-34.27 66.02,-86.48c0,-42.18 -14.67,-71.19 -44.02,-86.48c-14.67,-8.44 -49.98,-12.66 -106.37,-12.66h-148.55c-58.69,0 -103.62,-4.22 -134.8,-12.66c-31.18,-8.44 -60.06,-23.73 -87.12,-46.4c-33.01,-26.89 -59.15,-63.8 -77.95,-110.73c-18.8,-46.93 -28.43,-97.55 -28.43,-150.81c0,-102.82 32.55,-184.03 97.2,-244.67c38.97,-36.38 106.83,-54.84 203.57,-54.84z" />
		<path id="Layer" class="font2" d="M3078,1617h116.18l93.69,253.55l98.38,-253.55h116.18v324.55h-75.89v-243.41l-97.91,243.41h-81.98l-92.76,-243.41v243.41h-75.89zM3849.1,1826.33c0,36.92 -13.59,66.13 -41.23,88.44c-25.77,19.88 -60.43,30.02 -104.94,30.02c-45.44,0 -81.51,-11.36 -107.28,-34.08c-23.89,-20.28 -36.07,-49.9 -36.07,-89.25c0,-33.27 11.71,-60.85 34.67,-82.76c25.3,-24.75 61.84,-37.32 110.09,-37.73c50.59,0 88.07,12.58 111.96,38.13c22.02,23.12 32.79,51.93 32.79,87.22zM3648.12,1868.93c12.18,17.44 31.39,26.37 57.15,26.37c44.5,0 66.99,-24.34 66.99,-72.62c0,-47.46 -22.49,-71.4 -67.46,-71.81c-45.44,0 -67.93,24.34 -67.93,73.02c0,19.88 3.75,34.89 11.24,45.03zM4088.95,1704.63v-87.63h74.49v324.55h-129.3c-26.23,0 -45.91,-1.62 -59.5,-5.27c-31.86,-8.93 -55.75,-25.96 -71.21,-51.52c-10.77,-17.44 -16.4,-38.54 -16.4,-63.29c0,-40.57 15.93,-72.21 47.32,-94.52c20.61,-15.01 48.25,-22.31 83.39,-22.31zM4088.95,1890.84v-135.9h-54.81c-23.89,0 -42.16,6.9 -54.34,21.1c-10.77,11.76 -16.4,26.78 -16.4,45.44c0,26.78 8.9,45.84 27.17,57.61c12.18,7.71 26.7,11.76 43.57,11.76zM4460.92,1797.53v50.71h-158.34c1.41,15.42 7.03,26.37 17.33,32.86c9.84,6.49 26.23,9.74 49.19,9.74h91.82v50.71h-100.25c-21.55,0 -39.35,-1.62 -52.94,-5.27c-13.59,-3.25 -26.7,-8.93 -38.41,-16.63c-33.26,-22.31 -50.13,-55.58 -50.13,-99.8c0,-28.8 8.9,-53.55 26.23,-75.05c12.18,-14.6 26.7,-25.15 43.57,-31.24c16.86,-6.09 38.88,-8.93 66.05,-8.93h105.87v50.3h-100.25c-20.61,0 -35.14,3.25 -43.1,9.33c-7.96,6.09 -13.12,17.04 -14.99,33.27zM4522.29,1941.55v-236.92h111.03c22.95,0 40.76,1.22 53.41,4.06c12.65,2.84 22.95,7.3 30.92,13.79c8.43,6.49 14.52,14.6 17.8,24.34c3.28,9.74 4.68,23.53 4.68,41.79v23.12h-72.14v-12.98c0,-16.63 -3.28,-28.4 -10.31,-34.48c-7.03,-6.09 -19.68,-9.33 -38.88,-9.33h-21.08v186.61zM4785.1,1941.55v-236.92h145.22c22.02,0 38.41,1.22 49.66,4.06c11.71,2.84 22.02,7.71 31.39,14.6c19.21,15.42 28.58,39.35 28.58,72.21v146.05h-75.42v-153.35c0,-11.76 -2.81,-19.88 -8.9,-25.15c-6.09,-5.27 -15.93,-8.11 -29.98,-8.11h-65.12v186.61zM5391.29,1617h116.18l93.69,253.55l98.38,-253.55h116.18v324.55h-75.89v-243.41l-97.91,243.41h-81.98l-92.76,-243.41v243.41h-75.89zM5891.15,1941.55v-236.92h75.42v236.92zM5966.57,1680.29h-75.42v-63.29h75.42zM6269.2,1704.63v50.3h-89.95c-30.45,0 -51.06,6.09 -62.77,17.85c-11.24,10.95 -16.86,27.59 -16.86,50.3c0,25.56 9.37,43.81 27.64,55.58c7.5,4.46 15.46,7.71 24.36,9.74c8.9,1.62 21.08,2.43 37.01,2.43h80.58v50.71h-102.59c-27.64,0 -49.66,-2.43 -66.05,-7.3c-15.93,-4.87 -29.98,-13.39 -42.63,-25.15c-23.42,-22.72 -35.14,-51.52 -35.14,-86.82c0,-42.19 14.05,-73.83 42.16,-94.52c11.24,-8.52 24.83,-14.2 40.29,-17.85c15.46,-3.65 36.07,-5.27 61.37,-5.27zM6326.82,1941.55v-236.92h111.03c22.95,0 40.76,1.22 53.41,4.06c12.65,2.84 22.95,7.3 30.92,13.79c8.43,6.49 14.52,14.6 17.8,24.34c3.28,9.74 4.68,23.53 4.68,41.79v23.12l-72.14,0v-12.98c0,-16.63 -3.28,-28.4 -10.31,-34.48c-7.03,-6.09 -19.68,-9.33 -38.88,-9.33h-21.08v186.61zM6828.08,1739.11c22.02,23.12 33.26,51.93 33.26,87.22c0,36.92 -14.05,66.13 -41.69,88.44c-25.3,19.88 -59.96,30.02 -104.47,30.02c-45.44,0 -81.51,-11.36 -107.28,-34.08c-23.89,-20.28 -36.07,-49.9 -36.07,-89.25c0,-33.27 11.24,-60.85 34.2,-82.76c25.77,-24.75 62.31,-37.32 110.09,-37.73c50.59,0 88.07,12.58 111.96,38.13zM6659.9,1868.93c12.65,17.44 31.86,26.37 57.62,26.37c44.5,0 66.99,-24.34 66.99,-72.62c0,-47.46 -22.49,-71.4 -67.46,-71.81c-45.44,0 -68.4,24.34 -68.4,73.02c0,19.88 3.75,34.89 11.24,45.03zM6917.09,1941.55v-58.01h171.46c27.17,0 45.44,-2.43 54.34,-6.9c13.12,-6.9 19.68,-17.04 19.68,-30.43c0,-15.82 -7.5,-27.59 -22.95,-34.48c-8.9,-4.46 -22.49,-6.49 -41.69,-6.49h-69.8c-42.16,0 -72.61,-6.49 -91.35,-19.88c-11.71,-8.52 -20.61,-19.07 -27.17,-31.64c-6.56,-12.58 -9.84,-26.37 -9.84,-40.97c0,-22.72 7.5,-43.41 22.95,-62.48c14.99,-18.26 38.88,-28.8 71.68,-32.05c11.24,-0.81 28.11,-1.22 50.13,-1.22h185.98v57.61h-167.71c-25.3,0.41 -42.16,1.62 -50.13,3.25c-16.86,3.65 -25.3,14.6 -25.3,32.86c0,15.82 7.03,25.96 21.08,31.24c9.37,3.65 25.3,5.68 47.32,5.68h60.43c30.45,0 53.41,2.43 68.4,6.9c26.7,7.71 44.97,21.5 55.28,40.97c7.96,15.82 11.71,32.45 11.71,50.3c0,19.88 -5.15,37.32 -15.93,52.74c-14.52,22.31 -36.54,35.7 -65.59,40.16c-14.52,2.03 -36.07,2.84 -64.65,2.84zM7531.25,1797.53v50.71h-158.34c1.41,15.42 7.5,26.37 17.33,32.86c10.31,6.49 26.7,9.74 49.66,9.74h91.35v50.71h-99.78c-22.02,0 -39.82,-1.62 -53.41,-5.27c-13.59,-3.25 -26.23,-8.93 -38.41,-16.63c-33.26,-22.31 -50.13,-55.58 -50.13,-99.8c0,-28.8 8.9,-53.55 26.7,-75.05c11.71,-14.6 26.23,-25.15 43.1,-31.24c16.86,-6.09 38.88,-8.93 66.52,-8.93h105.41v50.3h-99.78c-20.61,0 -35.14,3.25 -43.57,9.33c-7.96,6.09 -13.12,17.04 -14.99,33.27zM7592.62,1941.55v-236.92l111.5,0c22.95,0 40.29,1.22 52.94,4.06c12.65,2.84 22.95,7.3 31.39,13.79c7.96,6.49 14.05,14.6 17.33,24.34c3.28,9.74 5.15,23.53 5.15,41.79v23.12h-72.61v-12.98c0,-16.63 -3.28,-28.4 -10.31,-34.48c-6.56,-6.09 -19.21,-9.33 -38.41,-9.33h-21.55v186.61zM7904.62,1704.63l69.8,163.08l76.36,-163.08h80.11l-118.05,236.92h-81.04l-109.15,-236.92zM8171.18,1941.55v-236.92h75.42v236.92zM8246.6,1680.29h-75.42v-63.29h75.42zM8549.7,1704.63v50.3h-89.95c-30.45,0 -51.53,6.09 -63.24,17.85c-11.24,10.95 -16.86,27.59 -16.86,50.3c0,25.56 9.37,43.81 27.64,55.58c7.5,4.46 15.46,7.71 24.36,9.74c8.9,1.62 21.08,2.43 37.01,2.43h81.04v50.71h-103.06c-27.64,0 -49.66,-2.43 -65.59,-7.3c-16.4,-4.87 -30.45,-13.39 -43.1,-25.15c-23.42,-22.72 -35.14,-51.52 -35.14,-86.82c0,-42.19 14.05,-73.83 42.16,-94.52c11.24,-8.52 24.83,-14.2 40.29,-17.85c15.93,-3.65 36.54,-5.27 61.37,-5.27zM8830.78,1797.53v50.71h-158.81c1.41,15.42 7.5,26.37 17.33,32.86c10.31,6.49 26.7,9.74 49.66,9.74h91.82v50.71h-100.25c-22.02,0 -39.35,-1.62 -52.94,-5.27c-13.59,-3.25 -26.7,-8.93 -38.88,-16.63c-33.26,-22.31 -49.66,-55.58 -49.66,-99.8c0,-28.8 8.9,-53.55 26.23,-75.05c11.71,-14.6 26.23,-25.15 43.1,-31.24c16.86,-6.09 38.88,-8.93 66.52,-8.93h105.87v50.3h-100.25c-20.61,0 -35.14,3.25 -43.1,9.33c-8.43,6.09 -13.59,17.04 -15.46,33.27zM9172.76,1941.55v-58.01h171.46c27.64,0 45.91,-2.43 54.81,-6.9c13.12,-6.9 19.68,-17.04 19.68,-30.43c0,-15.82 -7.5,-27.59 -22.95,-34.48c-8.9,-4.46 -22.49,-6.49 -41.69,-6.49h-69.8c-42.63,0 -73.08,-6.49 -91.82,-19.88c-11.71,-8.52 -20.61,-19.07 -27.17,-31.64c-6.56,-12.58 -9.84,-26.37 -9.84,-40.97c0,-22.72 7.5,-43.41 22.95,-62.48c14.99,-18.26 38.88,-28.8 72.14,-32.05c11.24,-0.81 28.11,-1.22 50.13,-1.22h185.98v57.61h-168.18c-24.83,0.41 -41.69,1.62 -50.13,3.25c-16.86,3.65 -25.3,14.6 -25.3,32.86c0,15.82 7.03,25.96 21.55,31.24c9.37,3.65 25.3,5.68 47.32,5.68h59.96c30.92,0 53.87,2.43 68.86,6.9c26.7,7.71 44.97,21.5 54.81,40.97c7.96,15.82 11.71,32.45 11.71,50.3c0,19.88 -5.15,37.32 -15.46,52.74c-14.52,22.31 -36.54,35.7 -66.05,40.16c-14.05,2.03 -35.6,2.84 -64.65,2.84zM9801.91,1739.11c22.02,23.12 33.26,51.93 33.26,87.22c0,36.92 -14.05,66.13 -41.69,88.44c-25.3,19.88 -59.96,30.02 -104.47,30.02c-45.44,0 -81.51,-11.36 -107.28,-34.08c-23.89,-20.28 -36.07,-49.9 -36.07,-89.25c0,-33.27 11.24,-60.85 34.2,-82.76c25.77,-24.75 62.31,-37.32 110.09,-37.73c50.59,0 88.07,12.58 111.96,38.13zM9633.73,1868.93c12.65,17.44 31.86,26.37 57.62,26.37c44.5,0 66.99,-24.34 66.99,-72.62c0,-47.46 -22.49,-71.4 -67.46,-71.81c-45.44,0 -68.4,24.34 -68.4,73.02c0,19.88 3.75,34.89 11.24,45.03zM9966.35,1617v324.55h-75.42v-324.55zM10219.32,1890.84v-186.21h74.95v236.92h-148.04c-21.55,0 -37.95,-1.22 -49.66,-4.06c-11.71,-2.84 -22.02,-7.71 -30.92,-15.01c-19.21,-15.01 -28.58,-38.95 -28.58,-72.62v-145.23h74.49v152.13c0,10.95 3.28,19.07 9.84,25.15c6.56,6.09 15.46,8.93 26.7,8.93zM10340.65,1704.63h47.78v-87.63h75.42v87.63h69.33v50.3h-69.33v86.41c0,19.88 1.87,32.45 6.09,37.73c6.09,7.71 17.33,11.76 33.73,11.76h29.51v50.71h-54.34c-32.32,0 -55.75,-6.9 -69.8,-20.28c-13.59,-13.79 -20.61,-36.92 -20.61,-68.97v-97.36h-47.78zM10584.72,1941.55v-236.92h74.95v236.92zM10659.68,1680.29h-74.95v-63.29h74.95zM11005.41,1826.33c0,36.92 -13.59,66.13 -41.23,88.44c-25.77,19.88 -60.43,30.02 -104.94,30.02c-45.44,0 -81.51,-11.36 -107.28,-34.08c-23.89,-20.28 -36.07,-49.9 -36.07,-89.25c0,-33.27 11.71,-60.85 34.67,-82.76c25.3,-24.75 61.84,-37.32 110.09,-37.73c50.59,0 88.07,12.58 111.96,38.13c22.02,23.12 32.79,51.93 32.79,87.22zM10804.43,1868.93c12.18,17.44 31.39,26.37 57.15,26.37c44.5,0 66.99,-24.34 66.99,-72.62c0,-47.46 -22.49,-71.4 -67.46,-71.81c-45.44,0 -67.93,24.34 -67.93,73.02c0,19.88 3.75,34.89 11.24,45.03zM11061.15,1941.55v-236.92h145.22c21.55,0 37.95,1.22 49.66,4.06c11.71,2.84 22.02,7.71 31.39,14.6c19.21,15.42 28.58,39.35 28.58,72.21v146.05h-75.42v-153.35c0,-11.76 -2.81,-19.88 -8.9,-25.15c-6.09,-5.27 -15.93,-8.11 -29.98,-8.11h-65.12v186.61z" />
	</g>
	<g id="theIcon">
		<path id="Layer" class="shp0" d="M520.52,1906.6c293.81,173.69 696.38,183.93 978.71,23.38c365.14,-207.5 534.01,-548.05 544.46,-907.86c8.22,-292.95 -168.17,-651.31 -373.81,-796.88c206.58,488.84 -246.9,710.22 -608.27,817.05c-213.38,62.81 -434.15,138.66 -588.48,291.09c-139.19,137.21 -202.12,367.09 -171.08,511.51c157.79,-494.05 547.56,-451.91 745.46,-448.97c229.22,3.37 490.13,-28.88 583.09,-152.84c49.87,467.81 -433.7,721.77 -726.9,670.91c231.27,-88.95 406.7,-233.41 448.41,-358.24c-196.69,189 -565.47,319.1 -831.59,350.82z" />
		<path id="Layer" class="shp1" d="M172.4,1647.19c155.56,-170.22 158.28,-445.8 80.16,-659.49c-64.75,-176.66 -119.32,-355.17 -110.17,-554.02c-127.42,164.84 -202.33,467.71 -79.77,698.51c77.77,146.77 155.6,291.11 109.78,515z" />
		<path id="Layer" class="shp2" d="M359.77,1309.49c192.74,-143.24 239.4,-369.74 187.16,-609.43c-62.14,-284.72 -21.34,-488.92 61.81,-639.85c-278.34,106.96 -381.33,304.52 -261.8,727.69c59.74,211.59 99.64,381.25 12.84,521.59z" />
		<path id="Layer" class="shp3" d="M582.31,1132.98c216.63,-59.38 307.42,-222.11 351.55,-561.75c26,-201.06 93.71,-449.19 294.34,-562.4c-303.34,-53 -565.39,136.02 -535.81,611.48c11.04,177.84 39.71,318.48 -110.06,512.65z" />
		<path id="Layer" class="shp4" d="M903.72,993.36c287.19,-67.67 388.3,-223.36 445.35,-398.75c55.84,-171.79 121.9,-342.25 232.11,-432.41c-289.54,-82.37 -410.6,81.18 -484.49,411.19c-30.62,136.55 -44.01,281.47 -192.95,419.96z" />
	</g>
</svg>